<?xml version="1.0" encoding="UTF-8" standalone="no"?>
<svg
   xmlns:dc="http://purl.org/dc/elements/1.1/"
   xmlns:cc="http://creativecommons.org/ns#"
   xmlns:rdf="http://www.w3.org/1999/02/22-rdf-syntax-ns#"
   xmlns:svg="http://www.w3.org/2000/svg"
   xmlns="http://www.w3.org/2000/svg"
   xmlns:sodipodi="http://sodipodi.sourceforge.net/DTD/sodipodi-0.dtd"
   xmlns:inkscape="http://www.inkscape.org/namespaces/inkscape"
   enable-background="new 0 0 510.8 84.9"
   version="1.1"
   viewBox="0 0 431.60002 69.9"
   xml:space="preserve"
   id="svg26"
   sodipodi:docname="mybodypass-logo.svg"
   width="431.60001"
   height="69.900002"
   inkscape:version="0.92.4 (5da689c313, 2019-01-14)"><metadata
   id="metadata32"><rdf:RDF><cc:Work
       rdf:about=""><dc:format>image/svg+xml</dc:format><dc:type
         rdf:resource="http://purl.org/dc/dcmitype/StillImage" /><dc:title></dc:title></cc:Work></rdf:RDF></metadata><defs
   id="defs30" /><sodipodi:namedview
   pagecolor="#ffffff"
   bordercolor="#666666"
   borderopacity="1"
   objecttolerance="10"
   gridtolerance="10"
   guidetolerance="10"
   inkscape:pageopacity="0"
   inkscape:pageshadow="2"
   inkscape:window-width="1920"
   inkscape:window-height="1016"
   id="namedview28"
   showgrid="false"
   fit-margin-top="0"
   fit-margin-left="0"
   fit-margin-right="0"
   fit-margin-bottom="0"
   inkscape:zoom="0.87901333"
   inkscape:cx="228.85051"
   inkscape:cy="42.449999"
   inkscape:window-x="1920"
   inkscape:window-y="27"
   inkscape:window-maximized="1"
   inkscape:current-layer="svg26" />
<style
   type="text/css"
   id="style2">
  .st0{fill:#D24A53;}
  .st1{fill:#3C3C3B;}
</style>

  <path
   class="st1"
   d="m 15.9,2.5 9.7,27.9 1.8,5.7 h 0.2 l 1.8,-5.6 9.9,-28 H 55.2 V 57.7 H 42 V 34.6 l 0.1,-6 -0.2,-0.1 -1.8,5.7 -8.2,23.4 h -9.3 l -8.1,-23.3 -1.8,-5.7 -0.1,0.1 0.1,6 v 23 H 0 V 2.5 Z"
   id="path6"
   inkscape:connector-curvature="0"
   style="fill:#3c3c3b" />
  <path
   class="st1"
   d="m 70.9,60.2 c 1.3,0 2.5,-0.2 3.5,-0.7 1,-0.5 1.8,-1.4 2.4,-2.8 L 76.9,56.2 59.4,12.6 h 15.1 l 7.1,24.1 1.5,5.7 h 0.2 l 1,-5.8 5.1,-24 h 14.1 L 89.9,56.5 c -1.5,4.7 -3.6,8.1 -6.4,10.2 -2.8,2.1 -6.2,3.1 -10.3,3.1 -2.8,0 -5.3,-0.4 -7.5,-1.3 l 1,-9.1 c 1.4,0.6 2.7,0.8 4.2,0.8 z"
   id="path8"
   inkscape:connector-curvature="0"
   style="fill:#3c3c3b" />
  <path
   class="st1"
   d="m 149,41.5 c 0,2.5 -0.4,4.7 -1.1,6.7 -0.8,2 -2,3.7 -3.6,5.1 -1.6,1.4 -3.7,2.5 -6.1,3.3 -2.5,0.8 -5.4,1.1 -8.9,1.1 H 107.8 V 2.5 h 21.6 c 5.9,0 10.4,1.3 13.4,3.8 3,2.6 4.5,6 4.5,10.5 0,2.9 -0.6,5.4 -1.8,7.2 -1.2,1.9 -2.9,3.3 -4.9,4.3 v 0.1 c 5.6,2 8.4,6.3 8.4,13.1 z M 133.5,19.3 c 0,-1.8 -0.3,-3.1 -1,-3.7 -0.7,-0.7 -1.9,-1 -3.6,-1 h -7.1 v 9.7 h 7.3 c 1.7,0 2.8,-0.4 3.5,-1.1 0.5,-0.7 0.9,-2 0.9,-3.9 z m 0.9,21.1 c 0,-1.9 -0.4,-3.3 -1.1,-4.1 -0.7,-0.8 -2.1,-1.3 -4.2,-1.3 h -7.5 v 11 h 7.8 c 1.8,0 3.1,-0.4 3.8,-1.1 0.9,-0.8 1.2,-2.3 1.2,-4.5 z"
   id="path10"
   inkscape:connector-curvature="0"
   style="fill:#3c3c3b" />
  <path
   class="st1"
   d="m 192.1,35.4 c 0,4.3 -0.4,7.9 -1.1,10.8 -0.8,2.9 -2,5.3 -3.6,7.2 -1.6,1.9 -3.7,3.2 -6.1,4 -2.5,0.8 -5.4,1.3 -8.8,1.3 -3.4,0 -6.3,-0.4 -8.8,-1.3 -2.5,-0.8 -4.5,-2.2 -6.1,-4 -1.6,-1.9 -2.8,-4.3 -3.6,-7.2 -0.8,-2.9 -1.2,-6.6 -1.2,-10.8 0,-4.2 0.4,-7.8 1.2,-10.8 0.8,-3 2,-5.4 3.6,-7.3 1.6,-1.9 3.7,-3.3 6.2,-4.1 2.5,-0.9 5.4,-1.3 8.8,-1.3 3.4,0 6.3,0.4 8.8,1.3 2.5,0.9 4.5,2.2 6.1,4.1 1.6,1.9 2.8,4.3 3.5,7.3 0.7,3 1.1,6.6 1.1,10.8 z m -25.5,0 c 0,2.6 0.1,4.8 0.3,6.4 0.2,1.6 0.6,2.9 1,3.9 0.5,0.9 1.1,1.6 1.8,1.9 0.8,0.3 1.7,0.5 2.8,0.5 1.1,0 2,-0.2 2.7,-0.5 0.7,-0.3 1.3,-1 1.8,-1.9 0.5,-0.9 0.8,-2.2 1,-3.9 0.2,-1.6 0.3,-3.8 0.3,-6.4 0,-2.6 -0.1,-4.8 -0.3,-6.4 -0.2,-1.6 -0.5,-2.9 -1,-3.9 -0.5,-0.9 -1.1,-1.6 -1.8,-1.9 -0.7,-0.3 -1.6,-0.5 -2.7,-0.5 -1.1,0 -2.1,0.2 -2.8,0.5 -0.7,0.3 -1.4,0.9 -1.8,1.9 -0.5,0.9 -0.8,2.2 -1,3.9 -0.2,1.6 -0.3,3.8 -0.3,6.4 z"
   id="path12"
   inkscape:connector-curvature="0"
   style="fill:#3c3c3b" />
  <path
   class="st1"
   d="m 223.4,57.7 -1.2,-3.4 c -1.3,1.3 -2.8,2.4 -4.5,3.1 -1.7,0.7 -3.8,1.1 -6.1,1.1 -5.2,0 -9.1,-1.9 -11.8,-5.6 -2.7,-3.8 -4.1,-9.7 -4.1,-17.9 0,-7.6 1.3,-13.4 4,-17.3 2.7,-3.9 6.5,-5.9 11.6,-5.9 3.4,0 6.5,1.1 9.1,3.3 L 220.5,15 220.4,9.1 V 0.6 L 233.8,0 v 57.8 h -10.4 z m -3,-31.7 c -0.4,-0.7 -1.1,-1.3 -2,-1.7 -0.9,-0.4 -1.9,-0.7 -3,-0.7 -1.1,0 -2,0.2 -2.7,0.5 -0.7,0.3 -1.3,1 -1.8,1.8 -0.5,0.9 -0.8,2.1 -1,3.6 -0.2,1.5 -0.3,3.5 -0.3,5.8 0,2.5 0.1,4.6 0.3,6.2 0.2,1.6 0.5,2.9 0.9,3.8 0.4,0.9 1,1.5 1.8,1.9 0.8,0.3 1.7,0.5 2.8,0.5 1.3,0 2.3,-0.3 3.2,-0.9 0.9,-0.6 1.5,-1.3 1.8,-2.1 z"
   id="path14"
   inkscape:connector-curvature="0"
   style="fill:#3c3c3b" />
  <path
   class="st1"
   d="m 249.2,60.2 c 1.3,0 2.5,-0.2 3.5,-0.7 1,-0.5 1.8,-1.4 2.4,-2.8 l 0.1,-0.5 -17.4,-43.5 h 15.1 l 7.1,24.1 1.5,5.7 h 0.2 l 1,-5.8 5.1,-24 h 14.1 l -13.6,43.9 c -1.5,4.7 -3.6,8.1 -6.4,10.2 -2.8,2.1 -6.2,3.1 -10.3,3.1 -2.8,0 -5.3,-0.4 -7.5,-1.3 l 1,-9.1 c 1.3,0.5 2.7,0.7 4.1,0.7 z"
   id="path16"
   inkscape:connector-curvature="0"
   style="fill:#3c3c3b" />
  <path
   class="st1"
   d="m 326.5,22 c 0,3 -0.4,5.6 -1.2,7.9 -0.8,2.3 -2,4.3 -3.8,5.9 -1.7,1.6 -3.9,2.8 -6.6,3.6 -2.7,0.8 -6,1.2 -9.9,1.2 h -4.6 V 57.7 H 286 V 2.5 h 18.9 c 3.8,0 7.1,0.4 9.8,1.1 2.7,0.8 4.9,1.9 6.7,3.5 1.7,1.6 3,3.6 3.8,6 0.9,2.6 1.3,5.5 1.3,8.9 z m -15,-0.1 c 0,-1.5 -0.1,-2.7 -0.3,-3.6 -0.2,-1 -0.5,-1.7 -1,-2.3 -0.5,-0.6 -1.2,-0.9 -2,-1.1 -0.8,-0.2 -1.9,-0.3 -3.2,-0.3 h -4.6 v 14.6 h 4.6 c 1.2,0 2.2,-0.1 3,-0.3 0.8,-0.2 1.5,-0.5 2,-1.1 0.5,-0.5 0.9,-1.3 1.1,-2.2 0.3,-0.9 0.4,-2.1 0.4,-3.7 z"
   id="path18"
   inkscape:connector-curvature="0"
   style="fill:#3c3c3b" />
  <path
   class="st1"
   d="M 352.2,54.1 352,54 c -2.5,2.9 -6,4.4 -10.5,4.4 -4.1,0 -7.3,-1.2 -9.7,-3.7 -2.4,-2.5 -3.6,-6.3 -3.6,-11.4 0,-2.1 0.3,-4 1,-5.8 0.7,-1.7 1.7,-3.2 3,-4.5 1.3,-1.3 2.9,-2.2 4.7,-2.9 1.9,-0.7 3.9,-1 6.3,-1 1.4,0 2.7,0.1 3.8,0.2 1.1,0.1 2.1,0.4 3.1,0.7 v -1.8 c 0,-1.7 -0.5,-3 -1.5,-3.9 -1,-0.9 -2.8,-1.3 -5.5,-1.3 -1.1,0 -2.2,0 -3.1,0.1 -1,0.1 -1.9,0.2 -2.7,0.4 -0.9,0.2 -1.7,0.4 -2.6,0.7 -0.9,0.3 -1.8,0.6 -2.8,1 l -1,-10.5 c 2.2,-1 4.5,-1.7 7,-2.1 2.5,-0.4 5.1,-0.7 7.8,-0.7 3.3,0 6.1,0.4 8.3,1.1 2.3,0.7 4.1,1.8 5.4,3.3 1.4,1.5 2.4,3.4 3,5.7 0.6,2.3 0.9,5 0.9,8.1 v 27.5 h -10.2 z m -2,-15.2 c -0.4,-0.2 -1,-0.4 -1.7,-0.5 -0.7,-0.1 -1.6,-0.2 -2.5,-0.2 -3.3,0 -5,1.7 -5,5 0,1.7 0.4,2.9 1.1,3.7 0.8,0.7 1.8,1.1 3.1,1.1 1.3,0 2.5,-0.4 3.5,-1.1 1,-0.7 1.5,-1.7 1.5,-3 z"
   id="path20"
   inkscape:connector-curvature="0"
   style="fill:#3c3c3b" />
  <path
   class="st1"
   d="m 398.7,43.3 c 0,2.4 -0.3,4.5 -1,6.4 -0.6,1.9 -1.6,3.5 -3,4.8 -1.3,1.3 -3.1,2.3 -5.2,3.1 -2.1,0.7 -4.7,1.1 -7.7,1.1 -2.5,0 -4.8,-0.2 -7,-0.6 -2.2,-0.4 -4.2,-1.1 -6,-2 l 1.3,-11 c 0.8,0.4 1.8,0.8 2.8,1.2 1,0.3 2,0.6 3.1,0.8 1.1,0.2 2,0.4 3,0.5 1,0.1 1.9,0.2 2.7,0.2 1.7,0 2.9,-0.3 3.6,-0.9 0.7,-0.6 1.1,-1.4 1.1,-2.4 0,-1 -0.4,-1.7 -1.3,-2.3 -0.9,-0.5 -2,-1.1 -3.3,-1.5 -1.4,-0.5 -2.8,-1 -4.3,-1.6 -1.5,-0.6 -3,-1.3 -4.3,-2.4 -1.4,-1 -2.5,-2.3 -3.3,-4 -0.9,-1.6 -1.3,-3.8 -1.3,-6.4 0,-2 0.3,-3.9 1,-5.6 0.7,-1.7 1.7,-3.3 3.1,-4.6 1.4,-1.3 3.1,-2.3 5.2,-3.1 2.1,-0.7 4.6,-1.1 7.5,-1.1 2.2,0 4.3,0.2 6.3,0.6 2,0.4 3.9,1 5.6,1.7 l -1,10.7 c -1.7,-0.7 -3.6,-1.2 -5.7,-1.5 -2.1,-0.3 -3.8,-0.5 -5.3,-0.5 -2.7,0 -4,0.9 -4,2.7 0,0.9 0.4,1.7 1.3,2.2 0.9,0.5 2,1 3.3,1.5 1.3,0.5 2.7,1 4.2,1.5 1.5,0.5 2.9,1.3 4.2,2.3 1.3,1 2.4,2.3 3.3,3.9 0.7,1.8 1.1,3.8 1.1,6.3 z"
   id="path22"
   inkscape:connector-curvature="0"
   style="fill:#3c3c3b" />
  <path
   class="st1"
   d="m 431.6,43.3 c 0,2.4 -0.3,4.5 -1,6.4 -0.6,1.9 -1.6,3.5 -3,4.8 -1.3,1.3 -3.1,2.3 -5.2,3.1 -2.1,0.7 -4.7,1.1 -7.7,1.1 -2.5,0 -4.8,-0.2 -7,-0.6 -2.2,-0.4 -4.2,-1.1 -6,-2 l 1.3,-11 c 0.8,0.4 1.8,0.8 2.8,1.2 1,0.3 2,0.6 3.1,0.8 1.1,0.2 2,0.4 3,0.5 1,0.1 1.9,0.2 2.7,0.2 1.7,0 2.9,-0.3 3.6,-0.9 0.7,-0.6 1.1,-1.4 1.1,-2.4 0,-1 -0.4,-1.7 -1.3,-2.3 -0.9,-0.5 -2,-1.1 -3.3,-1.5 -1.4,-0.5 -2.8,-1 -4.3,-1.6 -1.5,-0.6 -3,-1.3 -4.3,-2.4 -1.4,-1 -2.5,-2.3 -3.3,-4 -0.9,-1.6 -1.3,-3.8 -1.3,-6.4 0,-2 0.3,-3.9 1,-5.6 0.7,-1.7 1.7,-3.3 3.1,-4.6 1.4,-1.3 3.1,-2.3 5.2,-3.1 2.1,-0.7 4.6,-1.1 7.5,-1.1 2.2,0 4.3,0.2 6.3,0.6 2,0.4 3.9,1 5.6,1.7 l -1,10.7 c -1.7,-0.7 -3.6,-1.2 -5.7,-1.5 -2.1,-0.3 -3.8,-0.5 -5.3,-0.5 -2.7,0 -4,0.9 -4,2.7 0,0.9 0.4,1.7 1.3,2.2 0.9,0.5 2,1 3.3,1.5 1.3,0.5 2.7,1 4.2,1.5 1.5,0.5 2.9,1.3 4.2,2.3 1.3,1 2.4,2.3 3.3,3.9 0.6,1.8 1.1,3.8 1.1,6.3 z"
   id="path24"
   inkscape:connector-curvature="0"
   style="fill:#3c3c3b" />
</svg>